<svg width="10" height="10" viewBox="0 0 10 10" fill="none" xmlns="http://www.w3.org/2000/svg">
<g filter="url(#filter0_i_1079_968)">
<path d="M5.98242 2.13138C6.11711 1.95629 6.36884 1.92347 6.54395 2.05814C6.71905 2.19283 6.75188 2.44456 6.61719 2.61966L6.31405 3.01389C6.12104 3.2649 6.02453 3.39041 6.0617 3.49341C6.06674 3.50738 6.07333 3.52075 6.08133 3.53327C6.14033 3.62552 6.29865 3.62552 6.6153 3.62552H7.06055C7.56785 3.62552 7.82196 3.62535 7.99023 3.76907C8.01397 3.78938 8.03635 3.81173 8.05664 3.83548C8.20017 4.0038 8.2002 4.25787 8.2002 4.76517V6.88528C8.2002 7.39259 8.20035 7.6467 8.05664 7.81497C8.03632 7.83875 8.01401 7.86105 7.99023 7.88138C7.82196 8.02501 7.56775 8.02493 7.06055 8.02493H2.94043C2.43313 8.02493 2.17906 8.02491 2.01074 7.88138C1.98699 7.86109 1.96465 7.83871 1.94434 7.81497C1.80062 7.6467 1.7998 7.3926 1.7998 6.88528V4.76517C1.7998 4.25772 1.80068 4.0038 1.94434 3.83548C1.96468 3.81168 1.98694 3.78941 2.01074 3.76907C2.17906 3.62535 2.4329 3.62552 2.94043 3.62552H3.47588C3.77071 3.62552 3.91812 3.62552 3.97768 3.53828C3.9858 3.52638 3.99262 3.51364 3.998 3.50027C4.03748 3.4023 3.95562 3.2797 3.7919 3.03451L3.7666 2.99661C3.64461 2.81289 3.69438 2.56434 3.87793 2.44193C4.06158 2.31966 4.31003 2.36985 4.43262 2.55325L4.70704 2.96489C4.83351 3.15459 4.89674 3.24944 4.98696 3.26114C4.99951 3.26277 5.01219 3.2632 5.02483 3.26243C5.11563 3.25691 5.18519 3.16659 5.32429 2.98597L5.98242 2.13138ZM3.36035 4.37454C3.02208 4.37454 2.85245 4.3745 2.74023 4.47025C2.72435 4.48382 2.70986 4.49928 2.69629 4.51517C2.6006 4.62733 2.60059 4.79634 2.60059 5.13431V6.51517C2.60059 6.8531 2.60051 7.02217 2.69629 7.13431C2.70985 7.15017 2.72437 7.16568 2.74023 7.17923C2.85245 7.27486 3.02221 7.27493 3.36035 7.27493H5.44043C5.77813 7.27493 5.9474 7.27465 6.05957 7.17923C6.07546 7.16566 6.09091 7.1502 6.10449 7.13431C6.20007 7.02217 6.2002 6.85287 6.2002 6.51517V5.13431C6.2002 4.7966 6.19996 4.62733 6.10449 4.51517C6.09092 4.49928 6.07545 4.48382 6.05957 4.47025C5.9474 4.37474 5.77822 4.37454 5.44043 4.37454H3.36035ZM7.2002 6.07571C6.92405 6.07571 6.7002 6.29957 6.7002 6.57571C6.70044 6.85165 6.9242 7.07571 7.2002 7.07571C7.47607 7.07558 7.69995 6.85157 7.7002 6.57571C7.7002 6.29966 7.47622 6.07585 7.2002 6.07571ZM7.2002 4.57571C6.92405 4.57571 6.7002 4.79957 6.7002 5.07571C6.70042 5.35166 6.92419 5.57571 7.2002 5.57571C7.47608 5.57558 7.69997 5.35158 7.7002 5.07571C7.7002 4.79966 7.47622 4.57585 7.2002 4.57571Z" fill="white"/>
</g>
<defs>
<filter id="filter0_i_1079_968" x="0" y="0" width="10" height="10" filterUnits="userSpaceOnUse" color-interpolation-filters="sRGB">
<feFlood flood-opacity="0" result="BackgroundImageFix"/>
<feBlend mode="normal" in="SourceGraphic" in2="BackgroundImageFix" result="shape"/>
<feColorMatrix in="SourceAlpha" type="matrix" values="0 0 0 0 0 0 0 0 0 0 0 0 0 0 0 0 0 0 127 0" result="hardAlpha"/>
<feOffset/>
<feGaussianBlur stdDeviation="1"/>
<feComposite in2="hardAlpha" operator="arithmetic" k2="-1" k3="1"/>
<feColorMatrix type="matrix" values="0 0 0 0 0.942 0 0 0 0 0.94 0 0 0 0 1 0 0 0 0.1 0"/>
<feBlend mode="hard-light" in2="shape" result="effect1_innerShadow_1079_968"/>
</filter>
</defs>
</svg>
