<svg width="10" height="10" viewBox="0 0 10 10" fill="none" xmlns="http://www.w3.org/2000/svg">
<g filter="url(#filter0_i_1651_86)">
<path d="M4.97363 5.30566C5.07554 5.32502 5.1343 5.37209 5.25098 5.46582C5.88039 5.9717 5.91987 6.70982 5.91992 6.83008C5.91985 7.01516 5.73474 7.75382 3.61035 7.75391C1.4856 7.75391 1.30086 7.01476 1.30078 6.83008C1.30082 6.70997 1.33962 5.97177 1.96875 5.46582C2.08542 5.37203 2.14412 5.32504 2.24609 5.30566C2.26052 5.30293 2.27637 5.30096 2.29102 5.2998C2.39458 5.29167 2.51793 5.34549 2.76465 5.45312C3.02364 5.56612 3.30974 5.62891 3.61035 5.62891C3.9107 5.62885 4.19637 5.56604 4.45508 5.45312C4.70175 5.34546 4.82516 5.29169 4.92871 5.2998C4.94333 5.30096 4.95923 5.30294 4.97363 5.30566ZM7.09961 2.8252C7.36188 2.82521 7.57512 3.03755 7.5752 3.2998V3.3548C7.5752 3.60859 7.5752 3.73548 7.64707 3.81964C7.65728 3.83159 7.66841 3.84272 7.68036 3.85293C7.76452 3.9248 7.89141 3.9248 8.1452 3.9248H8.2002C8.46225 3.92493 8.67451 4.1374 8.6748 4.39941C8.6748 4.66167 8.46243 4.87488 8.2002 4.875H8.1452C7.89141 4.875 7.76452 4.875 7.68036 4.94688C7.66841 4.95708 7.65728 4.96821 7.64707 4.98017C7.5752 5.06432 7.5752 5.19122 7.5752 5.445V5.5C7.57509 5.76224 7.36187 5.97459 7.09961 5.97461C6.83752 5.9744 6.62511 5.76212 6.625 5.5V5.445C6.625 5.19122 6.625 5.06432 6.55312 4.98017C6.54291 4.96821 6.53179 4.95708 6.51983 4.94688C6.43568 4.875 6.30878 4.875 6.055 4.875H6C5.73766 4.875 5.52539 4.66175 5.52539 4.39941C5.52568 4.13733 5.73784 3.9248 6 3.9248H6.055C6.30878 3.9248 6.43568 3.9248 6.51983 3.85293C6.53179 3.84272 6.54291 3.83159 6.55312 3.81964C6.625 3.73548 6.625 3.60859 6.625 3.3548V3.2998C6.62508 3.03767 6.8375 2.82541 7.09961 2.8252ZM3.61035 2.2002C4.3246 2.20042 4.90332 2.77981 4.90332 3.49414C4.90307 4.20826 4.32444 4.78689 3.61035 4.78711C2.89607 4.78711 2.31666 4.20839 2.31641 3.49414C2.31641 2.77967 2.89592 2.2002 3.61035 2.2002Z" fill="white"/>
</g>
<defs>
<filter id="filter0_i_1651_86" x="0" y="0" width="10" height="10" filterUnits="userSpaceOnUse" color-interpolation-filters="sRGB">
<feFlood flood-opacity="0" result="BackgroundImageFix"/>
<feBlend mode="normal" in="SourceGraphic" in2="BackgroundImageFix" result="shape"/>
<feColorMatrix in="SourceAlpha" type="matrix" values="0 0 0 0 0 0 0 0 0 0 0 0 0 0 0 0 0 0 127 0" result="hardAlpha"/>
<feOffset/>
<feGaussianBlur stdDeviation="1"/>
<feComposite in2="hardAlpha" operator="arithmetic" k2="-1" k3="1"/>
<feColorMatrix type="matrix" values="0 0 0 0 0.942 0 0 0 0 0.94 0 0 0 0 1 0 0 0 0.1 0"/>
<feBlend mode="hard-light" in2="shape" result="effect1_innerShadow_1651_86"/>
</filter>
</defs>
</svg>
