<svg width="10" height="10" viewBox="0 0 10 10" fill="none" xmlns="http://www.w3.org/2000/svg">
<g filter="url(#filter0_i_1208_113)">
<path d="M5.77409 2.15456C6.54885 2.15456 6.93625 2.15516 7.20769 2.36745C7.2464 2.39773 7.28322 2.43044 7.31706 2.46608C7.55436 2.71596 7.59154 3.10206 7.6657 3.87331L7.84636 5.75221C7.9159 6.47546 7.95023 6.83714 7.78288 7.11842C7.75895 7.15864 7.73213 7.19719 7.7028 7.23366C7.49761 7.48872 7.1462 7.58254 6.44402 7.76979C6.22528 7.82778 6.11591 7.85677 6.02792 7.84068C5.90093 7.81746 5.79296 7.73438 5.73797 7.61758C5.69987 7.53665 5.69987 7.4235 5.69987 7.19721V6.29074C5.69987 6.01661 5.98323 5.83418 6.23278 5.94765C6.49058 6.06488 6.78074 5.86652 6.7651 5.58374L6.73615 5.06042C6.72169 4.79893 6.71446 4.66819 6.64865 4.57456C6.61782 4.53068 6.57847 4.49346 6.53296 4.46509C6.43584 4.40456 6.30489 4.40456 6.04301 4.40456H3.95635C3.69446 4.40456 3.56352 4.40456 3.46639 4.46509C3.42089 4.49346 3.38154 4.53068 3.35071 4.57456C3.2849 4.66819 3.27767 4.79893 3.26321 5.06042L3.23426 5.58374C3.21862 5.86652 3.50877 6.06488 3.76658 5.94765C4.01613 5.83418 4.29948 6.01661 4.29948 6.29074V7.19816C4.29948 7.42342 4.29948 7.53605 4.26173 7.61666C4.20672 7.73414 4.09816 7.81764 3.97051 7.84067C3.8829 7.85648 3.77404 7.82758 3.55632 7.76979C2.85414 7.58254 2.50273 7.48872 2.29753 7.23366C2.26818 7.19716 2.24141 7.15867 2.21745 7.11842C2.05005 6.83713 2.08443 6.47554 2.15398 5.75221L2.33464 3.87331C2.4088 3.10205 2.44597 2.71596 2.68327 2.46608C2.71712 2.43044 2.75393 2.39773 2.79265 2.36745C3.06409 2.15516 3.45145 2.15456 4.22624 2.15456H5.77409Z" fill="white"/>
</g>
<defs>
<filter id="filter0_i_1208_113" x="0" y="0" width="10" height="10" filterUnits="userSpaceOnUse" color-interpolation-filters="sRGB">
<feFlood flood-opacity="0" result="BackgroundImageFix"/>
<feBlend mode="normal" in="SourceGraphic" in2="BackgroundImageFix" result="shape"/>
<feColorMatrix in="SourceAlpha" type="matrix" values="0 0 0 0 0 0 0 0 0 0 0 0 0 0 0 0 0 0 127 0" result="hardAlpha"/>
<feOffset/>
<feGaussianBlur stdDeviation="1"/>
<feComposite in2="hardAlpha" operator="arithmetic" k2="-1" k3="1"/>
<feColorMatrix type="matrix" values="0 0 0 0 0.942 0 0 0 0 0.94 0 0 0 0 1 0 0 0 0.1 0"/>
<feBlend mode="hard-light" in2="shape" result="effect1_innerShadow_1208_113"/>
</filter>
</defs>
</svg>
